<svg id="Layer_1" data-name="Layer 1" xmlns="http://www.w3.org/2000/svg" viewBox="0 0 1500 342.58"><defs><style>.cls-1{fill:#e36cf8;}</style></defs><polygon class="cls-1" points="407.22 193.91 312.77 59.01 259.93 134.48 301.54 193.91 260.22 193.91 202.5 111.49 41.33 341.66 23.5 341.66 0 341.66 202.5 52.47 239.26 104.97 312.77 0 448.55 193.91 407.22 193.91"/><path class="cls-1" d="M488.65,193.91q-11.26,0-18.38-4.29a25.66,25.66,0,0,1-10.41-11.39,36.68,36.68,0,0,1-3.27-15.54,46,46,0,0,1,3.27-17.3,44.49,44.49,0,0,1,9.41-14.49,43.76,43.76,0,0,1,14.6-9.91,48.38,48.38,0,0,1,19-3.59q11.4,0,18.45,4.15a25.44,25.44,0,0,1,10.41,11.25,36.69,36.69,0,0,1,3.35,15.82,45.49,45.49,0,0,1-12.69,31.58,43.93,43.93,0,0,1-14.67,10.06A48.24,48.24,0,0,1,488.65,193.91Zm3.27-19.23a16.24,16.24,0,0,0,7.34-1.74,19.48,19.48,0,0,0,6.2-4.92,24.36,24.36,0,0,0,4.27-7.5,26.49,26.49,0,0,0,1.57-9.17,21.53,21.53,0,0,0-1.28-7.84,11.12,11.12,0,0,0-3.92-5.14,10.91,10.91,0,0,0-6.48-1.88,15.39,15.39,0,0,0-7.27,1.81,22,22,0,0,0-6.2,4.93,22.5,22.5,0,0,0-4.34,7.5,27.43,27.43,0,0,0-1.57,9.37,20.74,20.74,0,0,0,1.28,7.57,10.73,10.73,0,0,0,10.4,7Z"/><path class="cls-1" d="M561.88,224.26q-11.4,0-18.81-3.92a32.56,32.56,0,0,1-12.11-11l14.82-12.39a21,21,0,0,0,8.05,7.55,23.77,23.77,0,0,0,11.61,2.85,24.58,24.58,0,0,0,9.83-2,23.13,23.13,0,0,0,8.41-6.37,23.56,23.56,0,0,0,5-11.07l1.42-7.34a28.78,28.78,0,0,1-11.18,10,30.16,30.16,0,0,1-13.61,3.39A22.3,22.3,0,0,1,552,190a24.52,24.52,0,0,1-8.34-10.64,38,38,0,0,1-2.85-15,47.32,47.32,0,0,1,3.42-18,49.74,49.74,0,0,1,9.33-14.92,45.73,45.73,0,0,1,13.54-10.28,35.91,35.91,0,0,1,16.17-3.78q8,0,13.18,3.53a18.8,18.8,0,0,1,7.34,9.88l2.71-12.27h19.95l-15,69.3a41.58,41.58,0,0,1-9.4,19.34,48,48,0,0,1-17.45,12.64A57,57,0,0,1,561.88,224.26Zm15.39-48.44a13,13,0,0,0,4.42-.83,18.91,18.91,0,0,0,4.34-2.26,24.83,24.83,0,0,0,4-3.46,30.49,30.49,0,0,0,3.49-4.44l3.42-15.53a16.71,16.71,0,0,0-2.42-6.75,14.15,14.15,0,0,0-4.49-4.46,11,11,0,0,0-5.77-1.6,14.17,14.17,0,0,0-7.41,2.15,23.18,23.18,0,0,0-6.27,5.58,28.76,28.76,0,0,0-4.34,7.79,25.08,25.08,0,0,0-1.64,8.94,18.92,18.92,0,0,0,1.49,7.58,11.77,11.77,0,0,0,11.19,7.29Z"/><path class="cls-1" d="M660.91,193.91q-11.26,0-18.38-4.29a25.66,25.66,0,0,1-10.41-11.39,36.68,36.68,0,0,1-3.27-15.54,46,46,0,0,1,3.27-17.3,44.49,44.49,0,0,1,9.41-14.49,43.76,43.76,0,0,1,14.6-9.91,48.38,48.38,0,0,1,19-3.59q11.4,0,18.46,4.15A25.48,25.48,0,0,1,704,132.8a36.69,36.69,0,0,1,3.35,15.82,45.49,45.49,0,0,1-12.69,31.58A43.93,43.93,0,0,1,680,190.26,48.24,48.24,0,0,1,660.91,193.91Zm3.27-19.23a16.24,16.24,0,0,0,7.34-1.74,19.48,19.48,0,0,0,6.2-4.92,24.36,24.36,0,0,0,4.27-7.5,26.49,26.49,0,0,0,1.57-9.17,21.53,21.53,0,0,0-1.28-7.84,11.12,11.12,0,0,0-3.92-5.14,10.91,10.91,0,0,0-6.48-1.88,15.39,15.39,0,0,0-7.27,1.81,22,22,0,0,0-6.2,4.93,22.5,22.5,0,0,0-4.34,7.5,27.43,27.43,0,0,0-1.57,9.37,20.74,20.74,0,0,0,1.28,7.57,10.73,10.73,0,0,0,10.4,7Z"/><path class="cls-1" d="M738.13,193.91a49.42,49.42,0,0,1-17.45-3.06,30.67,30.67,0,0,1-13.18-9L718.61,168a46.52,46.52,0,0,0,11.18,7.2A27.53,27.53,0,0,0,741,177.67a13.94,13.94,0,0,0,5.06-.81,6.81,6.81,0,0,0,3.13-2.31,5.88,5.88,0,0,0,1.07-3.52,4.81,4.81,0,0,0-2.49-4.14,33.52,33.52,0,0,0-8.2-3.3,105,105,0,0,1-12.68-4.84,18.92,18.92,0,0,1-7.19-5.48,12.22,12.22,0,0,1-2.35-7.51A24.11,24.11,0,0,1,722,131.23a31.92,31.92,0,0,1,12.46-10.11,39.74,39.74,0,0,1,17.25-3.72,44.29,44.29,0,0,1,14.74,2.28,29.14,29.14,0,0,1,11.9,8.26l-11.68,13.54a44,44,0,0,0-9.27-6.2,19.72,19.72,0,0,0-8.4-1.92,13.63,13.63,0,0,0-5,.83,7.27,7.27,0,0,0-3.28,2.34,6.3,6.3,0,0,0-1.14,3.87,4.16,4.16,0,0,0,2.28,3.8,40.16,40.16,0,0,0,8.13,3A71.2,71.2,0,0,1,763.14,152a20.62,20.62,0,0,1,7.48,6A14.12,14.12,0,0,1,773,166.4a24.24,24.24,0,0,1-4.35,14.32,28.94,28.94,0,0,1-12.18,9.68A44.61,44.61,0,0,1,738.13,193.91Zm-14.68,29.5,6.42-9.55H723l3.13-14.25H745l-3,14.25-8.55,9.55Z"/><path class="cls-1" d="M807.8,193.91A25.18,25.18,0,0,1,793.49,190a25.72,25.72,0,0,1-9.12-10.68A35.29,35.29,0,0,1,781.16,164a48.81,48.81,0,0,1,3.28-17.86,47.7,47.7,0,0,1,9-14.84,45.3,45.3,0,0,1,13-10.12,33.23,33.23,0,0,1,15.39-3.73,21.13,21.13,0,0,1,12.47,3.66,18,18,0,0,1,7,9.7L844,118.54h22.94l-10.55,47.34c-.09.56-.17,1.07-.21,1.53a11.44,11.44,0,0,0-.07,1.24c0,2.12,1.18,3.28,3.56,3.46l-4,19.24q-3.13.57-5.56.85a34.07,34.07,0,0,1-4.13.29c-3.7,0-6.65-.66-8.83-2s-3.28-3.58-3.28-6.76a6.2,6.2,0,0,1,.07-.9c0-.34.09-.75.14-1.22a11.19,11.19,0,0,1,.22-1.35A34,34,0,0,1,822,190.54,32.57,32.57,0,0,1,807.8,193.91Zm10.12-19.23a14.56,14.56,0,0,0,4.35-.69,17.68,17.68,0,0,0,4.34-2.06,31.79,31.79,0,0,0,4.13-3.15,22.22,22.22,0,0,0,3.57-4.12l3.42-15.47a17.48,17.48,0,0,0-2.36-6.49,13.46,13.46,0,0,0-4.48-4.55,10.73,10.73,0,0,0-5.7-1.66,15.26,15.26,0,0,0-7.48,2,22.48,22.48,0,0,0-6.41,5.34,26.65,26.65,0,0,0-4.42,7.57,24.26,24.26,0,0,0-1.64,8.82,17.64,17.64,0,0,0,1.5,7.43,11.74,11.74,0,0,0,4.41,5.13A12.28,12.28,0,0,0,817.92,174.68Z"/><path class="cls-1" d="M181.45,208.72H248l-4.42,20.52h-43l-4.13,19.66h36.9l-4.13,19h-36.9l-4.56,21.51H232l-4.27,20.52H159.94Z"/><path class="cls-1" d="M248,235.94H271.5L274.07,292q4.69-7.89,8.47-14.72t6.84-13.38q3.06-6.56,5.7-13.38t5.2-14.58H320.8a169.24,169.24,0,0,1-15.53,36.9,293.62,293.62,0,0,1-24.79,37.05H256.82Z"/><path class="cls-1" d="M348.87,311.31a33.57,33.57,0,0,1-16.53-3.94,26.66,26.66,0,0,1-10.9-11,34,34,0,0,1-3.78-16.24,40.66,40.66,0,0,1,3.57-17.51,45.28,45.28,0,0,1,10.33-14.49,48.54,48.54,0,0,1,15.31-9.77,50,50,0,0,1,18.95-3.52,41,41,0,0,1,14.75,2.39,20.34,20.34,0,0,1,9.55,7.11,19.29,19.29,0,0,1,3.35,11.47q0,12.09-11.19,18.29T349,280.25q-4.27,0-9.33-.21c-3.37-.14-6.91-.41-10.62-.79l3.14-13.82,8.48.57c2.7.19,5.53.29,8.47.29a71.7,71.7,0,0,0,13.18-1c3.28-.65,5.61-1.58,7-2.82a6.44,6.44,0,0,0,.92-8.38,7.48,7.48,0,0,0-3.28-2.26,13.75,13.75,0,0,0-5-.83,16.58,16.58,0,0,0-8.48,2.37,21.93,21.93,0,0,0-7,6.55A33.7,33.7,0,0,0,342,269.5,39.25,39.25,0,0,0,340.32,281a16.55,16.55,0,0,0,1.28,7.39,10.08,10.08,0,0,0,4.21,4.8,14.56,14.56,0,0,0,7.33,1.6,19.59,19.59,0,0,0,9.48-2.35,18.73,18.73,0,0,0,7.05-6.62l17.95,5.7a44.37,44.37,0,0,1-10.18,10.26,49.76,49.76,0,0,1-13.54,7.05A46.45,46.45,0,0,1,348.87,311.31Z"/><path class="cls-1" d="M410,235.94h20.95l-3.28,14.93a44.77,44.77,0,0,1,12-11.7,24.16,24.16,0,0,1,13-4.23h2.14a3.93,3.93,0,0,1,1.14.14l-4.14,20.38a41.07,41.07,0,0,0-14.6,2.55,25.54,25.54,0,0,0-10.9,7.51l-9.55,44.37H394Z"/><path class="cls-1" d="M483.8,311.31a33.57,33.57,0,0,1-16.53-3.94,26.66,26.66,0,0,1-10.9-11,34.14,34.14,0,0,1-3.77-16.24,40.51,40.51,0,0,1,3.56-17.51,45.28,45.28,0,0,1,10.33-14.49,48.59,48.59,0,0,1,15.32-9.77,49.93,49.93,0,0,1,18.95-3.52,41,41,0,0,1,14.74,2.39,20.24,20.24,0,0,1,9.55,7.11,19.29,19.29,0,0,1,3.35,11.47q0,12.09-11.19,18.29t-33.27,6.19q-4.28,0-9.33-.21c-3.37-.14-6.91-.41-10.61-.79l3.13-13.82,8.48.57c2.71.19,5.53.29,8.48.29a71.85,71.85,0,0,0,13.18-1c3.27-.65,5.6-1.58,7-2.82a6.44,6.44,0,0,0,.92-8.38,7.5,7.5,0,0,0-3.27-2.26,13.84,13.84,0,0,0-5-.83,16.58,16.58,0,0,0-8.48,2.37,22,22,0,0,0-7,6.55,33.7,33.7,0,0,0-4.56,9.54A39.25,39.25,0,0,0,475.25,281a16.69,16.69,0,0,0,1.28,7.39,10.13,10.13,0,0,0,4.21,4.8,14.58,14.58,0,0,0,7.34,1.6,19.55,19.55,0,0,0,9.47-2.35,18.73,18.73,0,0,0,7.05-6.62l18,5.7a44.42,44.42,0,0,1-10.19,10.26,49.61,49.61,0,0,1-13.54,7.05A46.45,46.45,0,0,1,483.8,311.31Z"/><path class="cls-1" d="M557.18,311.31a49.42,49.42,0,0,1-17.45-3.06,30.67,30.67,0,0,1-13.18-9.05l11.11-13.82a46.52,46.52,0,0,0,11.18,7.2A27.53,27.53,0,0,0,560,295.07a13.94,13.94,0,0,0,5.06-.81,6.81,6.81,0,0,0,3.13-2.31,5.83,5.83,0,0,0,1.07-3.52,4.78,4.78,0,0,0-2.49-4.14,33.52,33.52,0,0,0-8.2-3.3,106.72,106.72,0,0,1-12.68-4.84,19,19,0,0,1-7.19-5.48,12.22,12.22,0,0,1-2.35-7.51A24.11,24.11,0,0,1,541,248.63a31.88,31.88,0,0,1,12.47-10.11,39.67,39.67,0,0,1,17.24-3.72,44.29,44.29,0,0,1,14.74,2.28,29.14,29.14,0,0,1,11.9,8.26l-11.68,13.54a44.19,44.19,0,0,0-9.26-6.2,19.8,19.8,0,0,0-8.41-1.92,13.63,13.63,0,0,0-5,.83,7.27,7.27,0,0,0-3.28,2.34,6.26,6.26,0,0,0-1.14,3.87,4.14,4.14,0,0,0,2.28,3.79,39.42,39.42,0,0,0,8.13,3,70.48,70.48,0,0,1,13.18,4.85,20.62,20.62,0,0,1,7.48,6,14.12,14.12,0,0,1,2.42,8.43,24.24,24.24,0,0,1-4.35,14.32,28.94,28.94,0,0,1-12.18,9.68A44.61,44.61,0,0,1,557.18,311.31Z"/><path class="cls-1" d="M604.77,297.41c0-.93.05-1.87.14-2.81s.24-1.91.43-3l8.26-38.33h-8.83l3.7-17.38h9l5-23.94h22.79l-5,23.94h14.1l-3.56,17.38H636.4l-6.55,30.23c-.1.46-.17.9-.22,1.32a9.92,9.92,0,0,0-.07,1.18,4.07,4.07,0,0,0,1.35,3.42,5.87,5.87,0,0,0,3.64,1,15.27,15.27,0,0,0,3.13-.36,23.18,23.18,0,0,0,3.42-1c1.14-.43,2.28-.83,3.42-1.21l.29,17.81a59.92,59.92,0,0,1-7.27,2.85,61.82,61.82,0,0,1-8,2,47,47,0,0,1-8,.71,20.79,20.79,0,0,1-11.9-3.23Q604.77,304.86,604.77,297.41Z"/><path class="cls-1" d="M668.6,235.94h22.8l-16,73.95h-22.8Zm6.13-29.21h22.8l-4.42,20.8h-22.8Z"/><path class="cls-1" d="M706.79,235.94H727.3l-2.7,12.64a35,35,0,0,1,8.26-7.59,36.16,36.16,0,0,1,10.33-4.64,44.19,44.19,0,0,1,11.75-1.55q6.55,0,10.26,2.32a12.13,12.13,0,0,1,5.13,6.19,23.94,23.94,0,0,1,1.43,8.36,36,36,0,0,1-.43,5.49c-.28,1.87-.57,3.7-.85,5.48l-10.12,47.25h-22.8l8.84-41.29a11.89,11.89,0,0,0,.64-3c0-.88.07-1.74.07-2.59q0-4.33-1.93-6.29a6.57,6.57,0,0,0-4.91-2,13.51,13.51,0,0,0-6,1.65,27.17,27.17,0,0,0-6.34,4.55,25.85,25.85,0,0,0-5.05,6.61l-9.27,42.33H690.83Z"/><path class="cls-1" d="M799.26,341.66q-11.41,0-18.81-3.92a32.48,32.48,0,0,1-12.11-11l14.82-12.4a20.91,20.91,0,0,0,8.05,7.56,23.72,23.72,0,0,0,11.61,2.85,24.58,24.58,0,0,0,9.83-2,23.22,23.22,0,0,0,8.41-6.38,23.47,23.47,0,0,0,5-11.06l1.43-7.34a28.87,28.87,0,0,1-11.19,10,30.09,30.09,0,0,1-13.6,3.39,22.35,22.35,0,0,1-13.33-3.92A24.63,24.63,0,0,1,781,296.75a38,38,0,0,1-2.85-15,47.32,47.32,0,0,1,3.42-18,49.74,49.74,0,0,1,9.33-14.92,45.48,45.48,0,0,1,13.54-10.28,35.91,35.91,0,0,1,16.17-3.78q8,0,13.18,3.53a18.87,18.87,0,0,1,7.34,9.88l2.7-12.27H863.8l-15,69.3a41.72,41.72,0,0,1-9.4,19.34A47.94,47.94,0,0,1,822,337.22,57,57,0,0,1,799.26,341.66Zm15.38-48.44a13,13,0,0,0,4.42-.83,19.17,19.17,0,0,0,4.35-2.26,25.72,25.72,0,0,0,4-3.46,31.19,31.19,0,0,0,3.49-4.44l3.42-15.53a16.57,16.57,0,0,0-2.43-6.75,14.12,14.12,0,0,0-4.48-4.46,11,11,0,0,0-5.77-1.6,14.15,14.15,0,0,0-7.41,2.15,23.16,23.16,0,0,0-6.27,5.57,28.73,28.73,0,0,0-4.35,7.8,25.26,25.26,0,0,0-1.64,8.94,18.75,18.75,0,0,0,1.5,7.58,11.77,11.77,0,0,0,11.18,7.29Z"/><path class="cls-1" d="M948.2,311.27q-15.8,0-28-6.44a50.75,50.75,0,0,1-19.4-17.71,46.66,46.66,0,0,1-7.23-25.76q0-14,6.16-24.54a67.65,67.65,0,0,1,15.12-18.11,84.92,84.92,0,0,1,17.26-11.54,32.3,32.3,0,0,1-11-12.18,35.53,35.53,0,0,1-4.28-17.26A45.46,45.46,0,0,1,923.71,153a64.54,64.54,0,0,1,17.93-18.6,88.38,88.38,0,0,1,23.55-11.78,78.1,78.1,0,0,1,23.95-4,60.21,60.21,0,0,1,24.08,5.09,47.57,47.57,0,0,1,19.27,14.85q7.48,9.76,7.5,24.22a39.53,39.53,0,0,1-4.55,18.59,56.46,56.46,0,0,1-11.78,15.39,61.73,61.73,0,0,1-15,10.44q7.76,4.56,13.51,14.22t5.75,22.54a55.41,55.41,0,0,1-6.69,26.83,70.23,70.23,0,0,1-18.06,21.46,86.44,86.44,0,0,1-25.42,14.09A88.38,88.38,0,0,1,948.2,311.27Zm7.22-32.38a34.46,34.46,0,0,0,12.85-2.56,39.85,39.85,0,0,0,11.64-7.12,36.05,36.05,0,0,0,8.43-10.89A29,29,0,0,0,991.55,245a22.73,22.73,0,0,0-3.35-12.5,21.49,21.49,0,0,0-8.83-7.93,27.34,27.34,0,0,0-12.17-2.69,34.19,34.19,0,0,0-13,2.55,44.39,44.39,0,0,0-11.64,7,31.19,31.19,0,0,0-8.3,10.49,29.9,29.9,0,0,0-2.94,13.31,22.93,22.93,0,0,0,3.21,12.23,23.25,23.25,0,0,0,8.83,8.34A24.61,24.61,0,0,0,955.42,278.89Zm17.66-84a31.72,31.72,0,0,0,10-1.74,30,30,0,0,0,9.5-5.22,32.32,32.32,0,0,0,7.22-8.29,21.18,21.18,0,0,0,2.95-11.24,16.55,16.55,0,0,0-2.81-9.5,19.28,19.28,0,0,0-7.23-6.43,22.27,22.27,0,0,0-10.3-2.27,31.36,31.36,0,0,0-14.18,3.34,28.68,28.68,0,0,0-10.84,9.24,23.48,23.48,0,0,0-4.15,13.91,16.83,16.83,0,0,0,2.81,9.9,18.14,18.14,0,0,0,7.49,6.16A22.6,22.6,0,0,0,973.08,194.86Z"/><path class="cls-1" d="M1104.21,311.27q-15.8,0-28-6.44a50.75,50.75,0,0,1-19.4-17.71,46.73,46.73,0,0,1-7.22-25.76q0-14,6.15-24.54a67.65,67.65,0,0,1,15.12-18.11,85.19,85.19,0,0,1,17.26-11.54,32.3,32.3,0,0,1-11-12.18,35.64,35.64,0,0,1-4.28-17.26,45.46,45.46,0,0,1,6.82-24.75,64.67,64.67,0,0,1,17.93-18.6,88.53,88.53,0,0,1,23.55-11.78,78.1,78.1,0,0,1,24-4,60.22,60.22,0,0,1,24.09,5.09,47.63,47.63,0,0,1,19.27,14.85q7.48,9.76,7.49,24.22a39.53,39.53,0,0,1-4.55,18.59,56.63,56.63,0,0,1-11.77,15.39,61.78,61.78,0,0,1-15,10.44q7.75,4.56,13.51,14.22t5.76,22.54a55.52,55.52,0,0,1-6.69,26.83,70.26,70.26,0,0,1-18.07,21.46,86.18,86.18,0,0,1-25.42,14.09A88.38,88.38,0,0,1,1104.21,311.27Zm7.23-32.38a34.37,34.37,0,0,0,12.84-2.56,39.85,39.85,0,0,0,11.64-7.12,36.05,36.05,0,0,0,8.43-10.89,29,29,0,0,0,3.21-13.31,22.73,22.73,0,0,0-3.34-12.5,21.62,21.62,0,0,0-8.83-7.93,27.35,27.35,0,0,0-12.18-2.69,34.23,34.23,0,0,0-13,2.55,44.71,44.71,0,0,0-11.64,7,31.44,31.44,0,0,0-8.3,10.49,30,30,0,0,0-2.94,13.31,22.93,22.93,0,0,0,3.21,12.23,23.32,23.32,0,0,0,8.83,8.34A24.62,24.62,0,0,0,1111.44,278.89Zm17.66-84a31.66,31.66,0,0,0,10-1.74,29.92,29.92,0,0,0,9.5-5.22,32.55,32.55,0,0,0,7.23-8.29,21.17,21.17,0,0,0,2.94-11.24,16.47,16.47,0,0,0-2.81-9.5,19.25,19.25,0,0,0-7.22-6.43,22.31,22.31,0,0,0-10.31-2.27,31.42,31.42,0,0,0-14.18,3.34,28.83,28.83,0,0,0-10.84,9.24,23.48,23.48,0,0,0-4.15,13.91,16.83,16.83,0,0,0,2.81,9.9,18.17,18.17,0,0,0,7.5,6.16A22.6,22.6,0,0,0,1129.1,194.86Z"/><path class="cls-1" d="M1264,302.71h-73.06l7-31.85,108.92-115.07h24.35l-24.35,114.8h22.48l-6.69,32.12H1300.1l-8.57,39.87h-35.86Zm10.7-32.12,13.39-60.74-54.33,60.74Z"/><path class="cls-1" d="M1408.21,311.27q-15.8,0-28-6.44a50.71,50.71,0,0,1-19.41-17.71,46.73,46.73,0,0,1-7.22-25.76q0-14,6.15-24.54a67.83,67.83,0,0,1,15.12-18.11,85.19,85.19,0,0,1,17.26-11.54,32.3,32.3,0,0,1-11-12.18,35.64,35.64,0,0,1-4.28-17.26,45.46,45.46,0,0,1,6.82-24.75,64.67,64.67,0,0,1,17.93-18.6,88.53,88.53,0,0,1,23.55-11.78,78.1,78.1,0,0,1,24-4,60.22,60.22,0,0,1,24.09,5.09,47.63,47.63,0,0,1,19.27,14.85q7.48,9.76,7.49,24.22a39.53,39.53,0,0,1-4.55,18.59,56.63,56.63,0,0,1-11.77,15.39,61.78,61.78,0,0,1-15,10.44q7.75,4.56,13.51,14.22t5.76,22.54a55.52,55.52,0,0,1-6.69,26.83,70.26,70.26,0,0,1-18.07,21.46,86.18,86.18,0,0,1-25.42,14.09A88.34,88.34,0,0,1,1408.21,311.27Zm7.23-32.38a34.37,34.37,0,0,0,12.84-2.56,39.85,39.85,0,0,0,11.64-7.12,36.05,36.05,0,0,0,8.43-10.89,29,29,0,0,0,3.21-13.31,22.73,22.73,0,0,0-3.34-12.5,21.62,21.62,0,0,0-8.83-7.93,27.35,27.35,0,0,0-12.18-2.69,34.23,34.23,0,0,0-13,2.55,44.71,44.71,0,0,0-11.64,7,31.44,31.44,0,0,0-8.3,10.49,30,30,0,0,0-2.94,13.31,22.93,22.93,0,0,0,3.21,12.23,23.32,23.32,0,0,0,8.83,8.34A24.62,24.62,0,0,0,1415.44,278.89Zm17.66-84a31.66,31.66,0,0,0,10-1.74,29.92,29.92,0,0,0,9.5-5.22,32.35,32.35,0,0,0,7.23-8.29,21.17,21.17,0,0,0,2.94-11.24,16.47,16.47,0,0,0-2.81-9.5,19.25,19.25,0,0,0-7.22-6.43,22.31,22.31,0,0,0-10.31-2.27,31.42,31.42,0,0,0-14.18,3.34,28.83,28.83,0,0,0-10.84,9.24,23.48,23.48,0,0,0-4.15,13.91,16.77,16.77,0,0,0,2.82,9.9,18.08,18.08,0,0,0,7.49,6.16A22.6,22.6,0,0,0,1433.1,194.86Z"/></svg>